<?xml version="1.0" encoding="utf-8"?>
<!-- Generator: Adobe Illustrator 19.2.1, SVG Export Plug-In . SVG Version: 6.00 Build 0)  -->
<svg version="1.1" id="Layer_1" xmlns="http://www.w3.org/2000/svg" xmlns:xlink="http://www.w3.org/1999/xlink" x="0px" y="0px"
	 viewBox="0 0 612 792" style="enable-background:new 0 0 612 792;" xml:space="preserve">
<style type="text/css">
	.st0{fill-rule:evenodd;clip-rule:evenodd;fill:url(#SVGID_1_);}
	.st1{fill-rule:evenodd;clip-rule:evenodd;fill:url(#SVGID_2_);}
	.st2{fill-rule:evenodd;clip-rule:evenodd;fill:url(#SVGID_3_);}
	.st3{fill-rule:evenodd;clip-rule:evenodd;fill:none;}
	.st4{fill:#F15A29;}
	.st5{font-family:'Swiss721BT-Bold';}
	.st6{font-size:64px;}
</style>
<g>
	<g>
		<g>
			<linearGradient id="SVGID_1_" gradientUnits="userSpaceOnUse" x1="269.9926" y1="130.6809" x2="389.0464" y2="242.3743">
				<stop  offset="0" style="stop-color:#2E3464"/>
				<stop  offset="0.48" style="stop-color:#00AEEF"/>
				<stop  offset="1" style="stop-color:#FFFFFF"/>
			</linearGradient>
			<path class="st0" d="M350.7,199.5c-55.7-39.7-76.9-25.3-82.8-1.9c-5.9,23.5,14.7,56,57.2,81.1c-51.9-28.5-79.3-79.5-61.4-117.6
				c12.8-27.4,45.5-41.2,83.3-38.9c14.3,1.8,30.6,9.9,42.4,18.3C436.6,174.1,391.2,228.3,350.7,199.5z"/>
			<linearGradient id="SVGID_2_" gradientUnits="userSpaceOnUse" x1="233.3024" y1="347.8479" x2="335.1779" y2="443.5874">
				<stop  offset="0" style="stop-color:#2E3464"/>
				<stop  offset="0.48" style="stop-color:#00AEEF"/>
				<stop  offset="1" style="stop-color:#FFFFFF"/>
			</linearGradient>
			<path class="st1" d="M261.5,381.3c55.7,39.7,76.9,25.3,82.8,1.9c5.9-23.5-14.7-56-57.2-81.1c52,28.5,79.3,79.5,61.4,117.6
				c-12.8,27.4-45.5,41.2-83.3,38.9c-14.3-1.8-30.6-9.8-42.4-18.3C175.6,406.7,221,352.4,261.5,381.3z"/>
			<linearGradient id="SVGID_3_" gradientUnits="userSpaceOnUse" x1="249.5504" y1="45.8334" x2="343.5703" y2="453.0783">
				<stop  offset="0" style="stop-color:#FFF200"/>
				<stop  offset="0.49" style="stop-color:#ED1C24"/>
				<stop  offset="1" style="stop-color:#792C2D"/>
			</linearGradient>
			<path class="st2" d="M278.5,217.1c-30.9-34.5,5.8-88.2,69.7-95c-25.6-4.5-60.5-4-93.3,8c-50.4,18.4-84.9,66.8-49.6,124.5
				c30.1,49.2,83.8,59.5,128.3,109.1c30.9,34.5-5.8,88.2-69.7,95c25.6,4.5,60.5,4,93.3-8c50.4-18.4,84.5-66.5,49.6-124.5
				C374.6,272.7,322.9,266.7,278.5,217.1z"/>
		</g>
	</g>
	<rect x="131.9" y="538.8" class="st3" width="348.2" height="161.2"/>
	<text transform="matrix(1.0588 0 0 1 191.5812 584.833)" class="st4 st5 st6">Shurity</text>
</g>
</svg>
